<svg width="40" height="40" viewBox="0 0 40 40" fill="none" xmlns="http://www.w3.org/2000/svg">
<path d="M37.9897 20.0514C37.9897 29.9897 29.9331 38.0462 19.9949 38.0462C10.0566 38.0462 2 29.9897 2 20.0514C2 10.1131 10.0566 2.05652 19.9949 2.05652C29.9331 2.05652 37.9897 10.1131 37.9897 20.0514Z" fill="#02718B"/>
<path fill-rule="evenodd" clip-rule="evenodd" d="M19.9949 35.9897C28.7973 35.9897 35.9332 28.8539 35.9332 20.0514C35.9332 11.2489 28.7973 4.11307 19.9949 4.11307C11.1924 4.11307 4.05656 11.2489 4.05656 20.0514C4.05656 28.8539 11.1924 35.9897 19.9949 35.9897ZM19.9949 38.0462C29.9331 38.0462 37.9897 29.9897 37.9897 20.0514C37.9897 10.1131 29.9331 2.05652 19.9949 2.05652C10.0566 2.05652 2 10.1131 2 20.0514C2 29.9897 10.0566 38.0462 19.9949 38.0462Z" fill="#BE9B58"/>
<path fill-rule="evenodd" clip-rule="evenodd" d="M18.9667 0H8.47832L11.049 4.66312V35.0442L8.37549 40H32.54L34.5966 32.1851H18.9667V0Z" fill="#BE9B58"/>
</svg>
